<?xml version="1.0" encoding="utf-8"?>
<!-- Generator: Adobe Illustrator 24.3.0, SVG Export Plug-In . SVG Version: 6.00 Build 0)  -->
<svg version="1.1" id="Layer_1" xmlns="http://www.w3.org/2000/svg" xmlns:xlink="http://www.w3.org/1999/xlink" x="0px" y="0px"
	 viewBox="0 0 237 215" style="enable-background:new 0 0 237 215;" xml:space="preserve">
<style type="text/css">
	.st0{fill:#D8A627;}
	.st1{fill:#AE411D;}
</style>
<g>
	<path class="st0" d="M195.58,140.56c-2.96-10.52-4.55-21.61-4.55-33.08c0-11.99,1.74-23.57,4.97-34.51
		c-19.16,15.46-43.1,25.24-69.26,26.76c0,0.01,0,0.02,0,0.03l-0.03-0.03c0.01,0,0.02,0,0.03,0c1.5-25.74,10.98-49.33,26.02-68.33
		c-10.56,2.99-21.7,4.59-33.22,4.59s-22.66-1.6-33.22-4.59c15.03,19,24.51,42.59,26.01,68.33c0.01,0,0.02,0,0.03,0l-0.02,0.02
		c0-0.01,0-0.02,0-0.03c-26.16-1.52-50.1-11.3-69.26-26.76c3.23,10.94,4.97,22.53,4.97,34.51c0,11.47-1.59,22.56-4.55,33.08
		c19.09-15.27,42.87-24.91,68.83-26.43l0.01,0.01c-1.54,26.38-11.47,50.51-27.17,69.75c10.9-3.2,22.44-4.93,34.38-4.93
		c11.94,0,23.47,1.72,34.37,4.92c-15.7-19.24-25.63-43.37-27.17-69.75l0.02-0.01C152.72,115.65,176.49,125.3,195.58,140.56"/>
	<path class="st1" d="M93.83,97.43c0,0,18.36,32.19-18.96,88.92c0,0,38.31-34.62,31.19-81.03L93.83,97.43z"/>
	<path class="st1" d="M106.85,115.93c0,0,6.31,6.77,16.5,7.62c0,0-4.53-7.62-5.09-7.62c-0.55,0-11.6-2.58-11.6-2.58l-2.76-2.58
		L106.85,115.93z"/>
	<path class="st1" d="M129.62,112.13c-4.68,0.72-9.28,0.35-13.08-2.24c-4.99-3.41-10.49-11.1-10.68-12.32
		c2.03-2.06,5.34-2.85,9.29-3c4.15-0.16,9.56,2.24,13.26,4.99c3.7,2.75,5.91,6.37,6.61,10.85
		C133.12,111.3,131.33,111.87,129.62,112.13 M123.44,87.99c-10.03,0-14.85,5.01-16.41,7.07c-0.39,0.67-0.84,1.47-1.35,2.42
		c-4.49-6.27-7.15-11.29-9.16-13.86l-2.31,2.91c-1.42,2.14-1.75,4.22-1.27,7.31c0.37,1.45,0.59,2.44,0.9,3.59
		c0,0,5.06,11.52,15.03,20.39c-2.5-2.22,5.77,3.71,9.53,4.78c1.97,0.52,3.61,0.84,4.97,0.95c1.32,0.12,2.59,0.08,3.81-0.11
		c3.24-0.5,6.08-1.53,8.51-3.1c2.43-1.57,4.37-3.47,5.82-5.71c2.36-3.51,3.31-7.35,2.87-11.53c-0.04-0.33-0.76-3.33-1.82-5.04
		C139.33,92.86,134.18,87.99,123.44,87.99"/>
	<path class="st0" d="M105.93,67.5c0,0,5.89,16.76,6.26,30.57l14.37,4.97c0,0,0.92-19.43,6.45-35.91L105.93,67.5z"/>
</g>
</svg>
