<?xml version="1.0" encoding="UTF-8"?>
<svg id="Layer_1" xmlns="http://www.w3.org/2000/svg" version="1.1" viewBox="0 0 1080 1080">
  <!-- Generator: Adobe Illustrator 29.1.0, SVG Export Plug-In . SVG Version: 2.1.0 Build 142)  -->
  <defs>
    <style>
      .st0 {
        fill: #d8a627;
      }
    </style>
  </defs>
  <path class="st0" d="M1018.2,746.9c-18.6-66.2-28.6-136.1-28.6-208.3s11-148.4,31.3-217.3c-120.6,97.3-271.3,158.9-436,168.5,0,0,0,.1,0,.2l-.2-.2c0,0,.1,0,.2,0,9.4-162,69.1-310.5,163.8-430.1-66.5,18.8-136.6,28.9-209.1,28.9s-142.6-10.1-209.1-28.9c94.6,119.6,154.3,268.1,163.8,430.1,0,0,.1,0,.2,0l-.2.2c0,0,0-.1,0-.2-164.7-9.6-315.4-71.1-436-168.5,20.3,68.9,31.3,141.8,31.3,217.3s-10,142-28.6,208.3c120.2-96.1,269.8-156.8,433.3-166.4h0c-9.7,166.2-72.2,318-171,439.2,68.6-20.2,141.2-31,216.4-31s147.8,10.8,216.4,31c-98.8-121.1-161.3-273-171-439.1h.1c163.4,9.5,313.1,70.2,433.2,166.3"/>
</svg>